<svg xmlns="http://www.w3.org/2000/svg" width="1448" height="213" viewBox="0 0 1448 213"><path d="M1211.5,201.342a233.43,233.43,0,0,1-74,11.658c-29.5,0-57.154-5.149-81-14.153-23.846,9-51.5,14.153-81,14.153-29.7,0-57.543-5.223-81.5-14.343C870.043,207.777,842.2,213,812.5,213c-29.5,0-57.154-5.149-81-14.153-23.846,9-51.5,14.153-81,14.153-29.7,0-57.543-5.223-81.5-14.343C545.043,207.777,517.2,213,487.5,213c-29.5,0-57.154-5.149-81-14.153-23.846,9-51.5,14.153-81,14.153-29.7,0-57.543-5.223-81.5-14.343C220.043,207.777,192.2,213,162.5,213,72.753,213,0,165.318,0,106.5S72.753,0,162.5,0c29.7,0,57.543,5.223,81.5,14.343C267.957,5.223,295.8,0,325.5,0c29.5,0,57.154,5.149,81,14.153C430.346,5.149,458,0,487.5,0c29.7,0,57.543,5.223,81.5,14.343C592.957,5.223,620.8,0,650.5,0c29.5,0,57.154,5.149,81,14.153C755.346,5.149,783,0,812.5,0c29.7,0,57.543,5.223,81.5,14.343C917.957,5.223,945.8,0,975.5,0c29.5,0,57.154,5.149,81,14.153C1080.346,5.149,1108,0,1137.5,0a233.431,233.431,0,0,1,74,11.658A233.431,233.431,0,0,1,1285.5,0C1375.246,0,1448,47.682,1448,106.5S1375.246,213,1285.5,213A233.431,233.431,0,0,1,1211.5,201.342Z" fill="#fff"/></svg>