<svg xmlns="http://www.w3.org/2000/svg" width="1772" height="213" viewBox="0 0 1772 213"><path d="M1535.5,201.342a233.429,233.429,0,0,1-74,11.658c-29.5,0-57.154-5.149-81-14.153-23.846,9-51.5,14.153-81,14.153-29.7,0-57.543-5.223-81.5-14.343-23.957,9.119-51.8,14.343-81.5,14.343-29.5,0-57.154-5.149-81-14.153-23.846,9-51.5,14.153-81,14.153-29.7,0-57.543-5.223-81.5-14.343C869.043,207.777,841.2,213,811.5,213c-29.5,0-57.154-5.149-81-14.153-23.846,9-51.5,14.153-81,14.153s-57.154-5.149-81-14.153c-23.846,9-51.5,14.153-81,14.153-29.7,0-57.543-5.223-81.5-14.343C382.043,207.777,354.2,213,324.5,213c-29.5,0-57.154-5.149-81-14.153-23.846,9-51.5,14.153-81,14.153C72.753,213,0,165.318,0,106.5S72.753,0,162.5,0c29.5,0,57.154,5.149,81,14.153C267.346,5.149,295,0,324.5,0c29.7,0,57.543,5.223,81.5,14.343C429.957,5.223,457.8,0,487.5,0c29.5,0,57.154,5.149,81,14.153C592.346,5.149,620,0,649.5,0s57.154,5.149,81,14.153C754.346,5.149,782,0,811.5,0c29.7,0,57.543,5.223,81.5,14.343C916.957,5.223,944.8,0,974.5,0c29.5,0,57.154,5.149,81,14.153C1079.346,5.149,1107,0,1136.5,0c29.7,0,57.543,5.223,81.5,14.343C1241.957,5.223,1269.8,0,1299.5,0c29.5,0,57.154,5.149,81,14.153C1404.346,5.149,1432,0,1461.5,0a233.43,233.43,0,0,1,74,11.658A233.431,233.431,0,0,1,1609.5,0C1699.246,0,1772,47.682,1772,106.5S1699.246,213,1609.5,213A233.431,233.431,0,0,1,1535.5,201.342Z" fill="#fff"/></svg>